<?xml version="1.0" encoding="utf-8"?>
<!-- Generator: Adobe Illustrator 15.1.0, SVG Export Plug-In . SVG Version: 6.00 Build 0)  -->
<!DOCTYPE svg PUBLIC "-//W3C//DTD SVG 1.1//EN" "http://www.w3.org/Graphics/SVG/1.1/DTD/svg11.dtd">
<svg version="1.1" id="Layer_1" xmlns="http://www.w3.org/2000/svg" xmlns:xlink="http://www.w3.org/1999/xlink" x="0px" y="0px"
	 width="100px" height="20px" viewBox="0 0 100 20" enable-background="new 0 0 100 20" xml:space="preserve">
<g>
	<polygon fill="#4183C4" points="9.923,1.053 13.014,7.315 19.923,8.319 14.923,13.193 16.104,20.075 9.923,16.825 3.743,20.075 
		4.923,13.193 -0.077,8.319 6.833,7.315 	"/>
</g>
<g>
	<polygon fill="#4183C4" points="29.923,1.053 33.014,7.315 39.923,8.319 34.923,13.193 36.104,20.075 29.923,16.825 23.743,20.075 
		24.923,13.193 19.923,8.319 26.833,7.315 	"/>
</g>
<g>
	<polygon fill="#4183C4" points="49.923,1.053 53.014,7.315 59.923,8.319 54.923,13.193 56.104,20.075 49.923,16.825 43.743,20.075 
		44.923,13.193 39.923,8.319 46.833,7.315 	"/>
</g>
<g>
	<polygon fill="#4183C4" points="69.923,1.053 73.014,7.315 79.923,8.319 74.923,13.193 76.104,20.075 69.923,16.825 63.742,20.075 
		64.923,13.193 59.923,8.319 66.832,7.315 	"/>
</g>
<g>
	<polygon fill="#4183C4" points="89.923,1.053 93.014,7.315 99.923,8.319 94.923,13.193 96.104,20.075 89.923,16.825 83.742,20.075 
		84.923,13.193 79.923,8.319 86.832,7.315 	"/>
</g>
</svg>
