<?xml version="1.0" encoding="utf-8"?>
<!-- Generator: Adobe Illustrator 15.1.0, SVG Export Plug-In . SVG Version: 6.00 Build 0)  -->
<!DOCTYPE svg PUBLIC "-//W3C//DTD SVG 1.1//EN" "http://www.w3.org/Graphics/SVG/1.1/DTD/svg11.dtd">
<svg version="1.1" id="Layer_1" xmlns="http://www.w3.org/2000/svg" xmlns:xlink="http://www.w3.org/1999/xlink" x="0px" y="0px"
	 width="117.987px" height="21.012px" viewBox="-0.5 -0.5 117.987 21.012" enable-background="new -0.5 -0.5 117.987 21.012"
	 xml:space="preserve">
<g>
	<g>
		<path fill="#FFFFFF" stroke="#C4C5C5" stroke-miterlimit="10" d="M17.176,19.074l-0.498-2.904l-0.318-1.854v-0.002l-0.254-1.482
			l2.806-2.736l1.728-1.684c0.593-0.578,0.408-1.148-0.411-1.268L17.84,6.797l-2.388-0.347c0,0,0,0,0,0l-1.489-0.217l-0.666-1.349
			c0-0.001,0-0.001-0.001-0.002L12.228,2.72L11.16,0.555c-0.367-0.74-0.965-0.74-1.332,0L8.759,2.72L7.692,4.883
			c0,0.001,0,0.001-0.001,0.002L7.025,6.234l-1.49,0.217c0,0,0,0,0,0L3.147,6.797L0.758,7.145c-0.819,0.119-1.004,0.689-0.411,1.268
			l1.728,1.684l2.806,2.736l-0.254,1.482v0.002L4.309,16.17l-0.498,2.904c-0.139,0.814,0.346,1.166,1.079,0.781l2.136-1.123
			l3.468-1.824l3.469,1.824l2.136,1.123C16.83,20.24,17.315,19.889,17.176,19.074z"/>
	</g>
	<g>
		<path fill="#FFFFFF" stroke="#C4C5C5" stroke-miterlimit="10" d="M41.176,19.074l-0.498-2.904l-0.318-1.854v-0.002l-0.254-1.482
			l2.806-2.736l1.728-1.684c0.593-0.578,0.408-1.148-0.411-1.268L41.84,6.797l-2.388-0.347c0,0,0,0,0,0l-1.489-0.217l-0.666-1.349
			c0-0.001,0-0.001-0.001-0.002L36.228,2.72L35.16,0.555c-0.367-0.74-0.965-0.74-1.332,0L32.759,2.72l-1.067,2.163
			c0,0.001,0,0.001-0.001,0.002l-0.666,1.349l-1.49,0.217c0,0,0,0,0,0l-2.388,0.347l-2.389,0.348
			c-0.819,0.119-1.004,0.689-0.411,1.268l1.728,1.684l2.806,2.736l-0.254,1.482v0.002l-0.318,1.854l-0.498,2.904
			c-0.139,0.814,0.346,1.166,1.079,0.781l2.136-1.123l3.468-1.824l3.469,1.824l2.136,1.123C40.83,20.24,41.315,19.889,41.176,19.074
			z"/>
	</g>
	<g>
		<path fill="#FFFFFF" stroke="#C4C5C5" stroke-miterlimit="10" d="M65.176,19.074l-0.497-2.904l-0.318-1.854v-0.002l-0.255-1.482
			l2.807-2.736l1.729-1.684c0.592-0.578,0.407-1.148-0.412-1.268L65.84,6.797l-2.388-0.347c0,0,0,0-0.001,0l-1.488-0.217
			l-0.666-1.349c-0.001-0.001-0.001-0.001-0.002-0.002L60.229,2.72L59.16,0.555c-0.367-0.74-0.966-0.74-1.332,0L56.76,2.72
			l-1.068,2.163c0,0.001,0,0.001,0,0.002l-0.666,1.349l-1.49,0.217l0,0l-2.389,0.347l-2.388,0.348
			c-0.819,0.119-1.004,0.689-0.411,1.268l1.728,1.684l2.806,2.736l-0.254,1.482v0.002l-0.318,1.854l-0.498,2.904
			c-0.139,0.814,0.347,1.166,1.079,0.781l2.136-1.123l3.469-1.824l3.469,1.824l2.135,1.123C64.83,20.24,65.314,19.889,65.176,19.074
			z"/>
	</g>
	<g>
		<path fill="#FFFFFF" stroke="#C4C5C5" stroke-miterlimit="10" d="M65.176,19.074l-0.497-2.904l-0.318-1.854v-0.002l-0.255-1.482
			l2.807-2.736l1.729-1.684c0.592-0.578,0.407-1.148-0.412-1.268L65.84,6.797l-2.388-0.347c0,0,0,0-0.001,0l-1.488-0.217
			l-0.666-1.349c-0.001-0.001-0.001-0.001-0.002-0.002L60.229,2.72L59.16,0.555c-0.367-0.74-0.966-0.74-1.332,0L56.76,2.72
			l-1.068,2.163c0,0.001,0,0.001,0,0.002l-0.666,1.349l-1.49,0.217l0,0l-2.389,0.347l-2.388,0.348
			c-0.819,0.119-1.004,0.689-0.411,1.268l1.728,1.684l2.806,2.736l-0.254,1.482v0.002l-0.318,1.854l-0.498,2.904
			c-0.139,0.814,0.347,1.166,1.079,0.781l2.136-1.123l3.469-1.824l3.469,1.824l2.135,1.123C64.83,20.24,65.314,19.889,65.176,19.074
			z"/>
	</g>
	<g>
		<path fill="#FFFFFF" stroke="#C4C5C5" stroke-miterlimit="10" d="M89.176,19.074l-0.497-2.904l-0.318-1.854v-0.002l-0.255-1.482
			l2.807-2.736l1.729-1.684c0.592-0.578,0.407-1.148-0.412-1.268L89.84,6.797l-2.388-0.347c0,0,0,0-0.001,0l-1.488-0.217
			l-0.666-1.349c-0.001-0.001-0.001-0.001-0.002-0.002L84.229,2.72L83.16,0.555c-0.367-0.74-0.966-0.74-1.332,0L80.76,2.72
			l-1.068,2.163c0,0.001,0,0.001,0,0.002l-0.666,1.349l-1.49,0.217l0,0l-2.389,0.347l-2.389,0.348
			c-0.818,0.119-1.004,0.689-0.41,1.268l1.728,1.684l2.806,2.736l-0.254,1.482v0.002l-0.318,1.854l-0.498,2.904
			c-0.139,0.814,0.347,1.166,1.079,0.781l2.136-1.123l3.469-1.824l3.469,1.824l2.135,1.123C88.83,20.24,89.314,19.889,89.176,19.074
			z"/>
	</g>
	<g>
		<path fill="#FFFFFF" stroke="#C4C5C5" stroke-miterlimit="10" d="M113.176,19.074l-0.497-2.904l-0.318-1.854v-0.002l-0.255-1.482
			l2.807-2.736l1.729-1.684c0.592-0.578,0.407-1.148-0.412-1.268l-2.389-0.348l-2.388-0.347c0,0,0,0-0.001,0l-1.488-0.217
			l-0.666-1.349c-0.001-0.001-0.001-0.001-0.002-0.002l-1.066-2.163l-1.068-2.165c-0.367-0.74-0.966-0.74-1.332,0L104.76,2.72
			l-1.068,2.163c0,0.001,0,0.001,0,0.002l-0.666,1.349l-1.49,0.217l0,0l-2.389,0.347l-2.389,0.348
			c-0.818,0.119-1.004,0.689-0.41,1.268l1.728,1.684l2.806,2.736l-0.254,1.482v0.002l-0.318,1.854l-0.498,2.904
			c-0.139,0.814,0.347,1.166,1.079,0.781l2.136-1.123l3.469-1.824l3.469,1.824l2.135,1.123
			C112.83,20.24,113.314,19.889,113.176,19.074z"/>
	</g>
</g>
</svg>
