<?xml version="1.0" encoding="utf-8"?>
<!-- Generator: Adobe Illustrator 15.1.0, SVG Export Plug-In . SVG Version: 6.00 Build 0)  -->
<!DOCTYPE svg PUBLIC "-//W3C//DTD SVG 1.1//EN" "http://www.w3.org/Graphics/SVG/1.1/DTD/svg11.dtd">
<svg version="1.1" id="Layer_1" xmlns="http://www.w3.org/2000/svg" xmlns:xlink="http://www.w3.org/1999/xlink" x="0px" y="0px"
	 width="100px" height="9px" viewBox="0 0 100 9" enable-background="new 0 0 100 9" xml:space="preserve">
<g>
	<rect x="0.5" y="1.5" fill="#EEEEEE" width="18" height="7"/>
	<path fill="#EEEEEE" d="M19.5,0.5h-19v8h19V0.5L19.5,0.5z"/>
</g>
<g>
	<rect x="20.5" y="1.5" fill="#EEEEEE" width="18" height="7"/>
	<path fill="#EEEEEE" d="M38.5,1.5 M39.5,0.5h-19v8h19V0.5L39.5,0.5z"/>
</g>
<g>
	<rect x="40.5" y="1.5" fill="#EEEEEE" width="18" height="7"/>
	<path fill="#EEEEEE" d="M58.5,1.5 M59.5,0.5h-19v8h19V0.5L59.5,0.5z"/>
</g>
<g>
	<rect x="60.5" y="1.5" fill="#EEEEEE" width="18" height="7"/>
	<path fill="#EEEEEE" d="M78.5,1.5 M79.5,0.5h-19v8h19V0.5L79.5,0.5z"/>
</g>
<g>
	<rect x="80.5" y="1.5" fill="#EEEEEE" width="18" height="7"/>
	<path fill="#EEEEEE" d="M98.5,1.5 M99.5,0.5h-19v8h19V0.5L99.5,0.5z"/>
</g>
</svg>
